<?xml version="1.0"?><svg width="100%" height="100%" viewBox="0 0 1772 555" version="1.1" xmlns="http://www.w3.org/2000/svg" xmlns:xlink="http://www.w3.org/1999/xlink" xml:space="preserve" xmlns:serif="http://www.serif.com/" style="fill-rule:evenodd;clip-rule:evenodd;stroke-linejoin:round;stroke-miterlimit:2;"><g id="Calque-1"><path d="M436.78,51.56c-13.055,-9.367 -26.984,-17.588 -41.638,-24.608l0,0.008c-36.046,-17.288 -76.35,-26.963 -118.896,-26.963c-15.708,0 -31.604,1.38 -47.146,4.05l-2.637,0.513l-0.871,0.167c-30.062,5.558 -58.633,15.912 -85.017,30.808l-0.629,0.367c-24.941,15.954 -32.612,50.654 -16.737,75.787c10.025,15.963 27.371,25.483 46.354,25.483c10.258,0 20.271,-2.875 28.95,-8.35c4.3,-2.225 8.9,-4.416 14.025,-6.508c1.383,-0.571 2.742,-1.083 4.117,-1.596l1.075,-0.408c18.795,-7.042 38.458,-10.596 58.516,-10.596c48.138,0 91.546,20.571 121.975,53.317c27.588,29.75 44.517,69.541 44.517,113.187c-0,35.767 -11.392,68.921 -30.725,96.088c-0,0.004 -0,0.008 0.004,0.016c-30.171,42.505 -79.792,70.325 -135.767,70.325c-44.3,0 -85.925,-17.22 -117.245,-48.416l-1.359,-1.359c-0.854,-0.858 -1.791,-1.8 -2.662,-2.691c-29.163,-31 -45.271,-71.438 -45.271,-113.946l-0,-112.058c-0,-30.15 -24.696,-54.655 -55.042,-54.655l-54.671,0l0,166.713c0,90.083 44.221,174.779 118.225,226.442l0.663,0.416c0.717,0.579 1.492,1.104 2.262,1.638c45.825,31.146 99.45,47.629 155.1,47.629c55.438,-0 107.125,-16.442 150.446,-44.675l0,0.004c0.004,-0.004 0.004,-0.004 0.009,-0.004c21.566,-14.067 41.05,-31.063 57.9,-50.408c42.266,-48.505 67.904,-111.859 67.904,-181.059c-0,-92.475 -45.734,-174.479 -115.729,-224.658" style="fill:#fff;fill-rule:nonzero;"></path><path d="M1653.4,49.696l-0.658,-0.483c-0.746,-0.563 -1.55,-1.125 -2.296,-1.608c-6.508,-4.405 -15,-9.475 -22.154,-13.484l0.004,-0.029l0.004,-0.017c-0.246,-0.133 -0.504,-0.237 -0.746,-0.37c-0.496,-0.275 -1.037,-0.592 -1.516,-0.855l-0.017,0.096c-11.7,-6.258 -23.783,-11.646 -36.183,-16.166c-9.163,-3.342 -18.455,-6.321 -27.93,-8.688l0,-0.004c-21.616,-5.325 -43.866,-8.067 -66.529,-8.067c-152.3,0 -276.221,123.884 -276.221,276.204c0,136.905 100.255,250.905 231.238,272.434l-0,0.008l0.017,0l-0,0.004c1.266,0.204 2.57,0.284 3.841,0.471c8.542,1.292 17.217,2.113 25.979,2.592c5.038,0.283 10.059,0.637 15.167,0.637c9.396,0 19.333,-0.575 29.6,-1.658c3.354,-0.367 6.479,-0.758 9.425,-1.167c2.858,-0.396 5.55,-0.804 8.088,-1.229c0.525,-0.083 1.033,-0.187 1.545,-0.287c0.367,-0.071 0.734,-0.134 1.105,-0.192l0.87,-0.204c0.609,-0.113 1.205,-0.267 1.809,-0.384c8.433,-1.604 16.787,-3.587 25.012,-5.979c9.296,-2.691 18.434,-5.85 27.35,-9.504l0.538,-0.242l0.346,-0.145c1.054,-0.517 2.045,-1.042 3.033,-1.546c0.2,-0.104 0.412,-0.209 0.617,-0.313l-0,-0.004c2.97,-1.537 5.758,-3.029 8.333,-4.521l0.629,-0.366c24.9,-15.905 32.608,-50.663 16.733,-75.788c-8.916,-14.179 -23.641,-23.275 -40.17,-25.104l-0.009,-0c-0.004,-0.004 -0.004,-0.008 -0.004,-0.013c-2.012,-0.22 -4.075,-0.358 -6.187,-0.358c-6.667,0 -13.784,2.221 -21.888,5.442c-0.958,0.379 -1.871,0.712 -2.862,1.121l-2.059,0.791l-3.362,1.288c-12.596,4.729 -25.609,7.754 -38.838,9.325c-6.508,0.771 -13.05,1.3 -19.654,1.3c-6.442,-0 -12.75,-0.513 -18.987,-1.242c-3.359,-0.396 -6.725,-0.767 -10.017,-1.346l-0,0.009c-0.008,-0.005 -0.017,-0.005 -0.021,-0.005l0,-0.008c-77.987,-13.754 -137.467,-81.987 -137.467,-163.817c0,-91.808 74.684,-166.529 166.471,-166.529c12.892,0 25.542,1.521 37.763,4.359c0.004,-0.005 0.004,-0.009 0.004,-0.017c6.154,1.425 12.187,3.233 18.104,5.342c19.396,6.908 37.429,17.42 53.225,31.216c2.604,2.304 6.025,5.363 8.179,7.525l1.238,1.2c0.875,0.921 1.804,1.871 2.712,2.813c29.221,31 45.309,71.554 45.309,114.091l-0,208.192c-0,30.15 24.729,54.654 55.041,54.654l54.704,0l0,-262.846c0,-90.2 -44.283,-174.887 -118.258,-226.529" style="fill:#fff;fill-rule:nonzero;"></path><path d="M862.89,443.825l-26.275,0c-63.613,0 -115.363,-51.796 -115.363,-115.313l0,-260.725c0,-30.541 -24.87,-55.37 -55.437,-55.37c-30.521,-0 -55.362,24.829 -55.362,55.37l-0,260.726c-0,124.637 101.454,226.091 226.162,226.091l35.929,0l0,0.021l63.683,0c-0.004,-0.008 -0.004,-0.013 -0.004,-0.021l2.855,0c124.745,0 226.216,-101.454 226.216,-226.092l0,-316.095l-55.387,-0c-30.571,-0 -55.392,24.829 -55.392,55.37l0,260.725c0,63.517 -51.75,115.313 -115.437,115.313l-16.767,-0" style="fill:#fff;fill-rule:nonzero;"></path><path d="M894.574,13.128c-1.104,-0.175 -2.246,-0.321 -3.4,-0.437l-0,0.021c-1.767,-0.196 -3.575,-0.284 -5.388,-0.284c-30.537,0 -55.408,24.846 -55.408,55.384l-0,342.033l30.996,-0l-0,0.008l24.404,0c11.692,0 22.521,-3.637 31.471,-9.829m0.004,0c14.433,-10.004 23.933,-26.671 23.933,-45.529l0,-286.704c0,-27.534 -20.241,-50.429 -46.596,-54.671" style="fill:#fff;fill-rule:nonzero;"></path></g></svg>